<mxfile host="app.diagrams.net" agent="Mozilla/5.0 (Windows NT 10.0; Win64; x64) AppleWebKit/537.36 (KHTML, like Gecko) Chrome/140.0.0.0 Safari/537.36" version="26.2.14">
  <diagram name="Page-1" id="6oaQqIfV_51Ieq7arwp_">
    <mxGraphModel dx="1426" dy="863" grid="1" gridSize="10" guides="1" tooltips="1" connect="1" arrows="1" fold="1" page="1" pageScale="1" pageWidth="850" pageHeight="1100" math="0" shadow="0">
      <root>
        <mxCell id="0" />
        <mxCell id="1" parent="0" />
        <mxCell id="gJJ33UvusSRLEiqcl2n6-3" value="" style="edgeStyle=orthogonalEdgeStyle;rounded=0;orthogonalLoop=1;jettySize=auto;html=1;" edge="1" parent="1" source="gJJ33UvusSRLEiqcl2n6-1" target="gJJ33UvusSRLEiqcl2n6-2">
          <mxGeometry relative="1" as="geometry" />
        </mxCell>
        <mxCell id="gJJ33UvusSRLEiqcl2n6-10" value="" style="edgeStyle=orthogonalEdgeStyle;rounded=0;orthogonalLoop=1;jettySize=auto;html=1;" edge="1" parent="1" source="gJJ33UvusSRLEiqcl2n6-1" target="gJJ33UvusSRLEiqcl2n6-9">
          <mxGeometry relative="1" as="geometry" />
        </mxCell>
        <mxCell id="gJJ33UvusSRLEiqcl2n6-1" value="Spotify ID" style="rounded=1;whiteSpace=wrap;html=1;" vertex="1" parent="1">
          <mxGeometry x="360" y="30" width="120" height="60" as="geometry" />
        </mxCell>
        <mxCell id="gJJ33UvusSRLEiqcl2n6-5" value="" style="edgeStyle=orthogonalEdgeStyle;rounded=0;orthogonalLoop=1;jettySize=auto;html=1;" edge="1" parent="1" source="gJJ33UvusSRLEiqcl2n6-2" target="gJJ33UvusSRLEiqcl2n6-4">
          <mxGeometry relative="1" as="geometry" />
        </mxCell>
        <mxCell id="gJJ33UvusSRLEiqcl2n6-2" value="Audio File (WAV, MP3, etc.)" style="rounded=1;whiteSpace=wrap;html=1;" vertex="1" parent="1">
          <mxGeometry x="160" y="130" width="120" height="60" as="geometry" />
        </mxCell>
        <mxCell id="gJJ33UvusSRLEiqcl2n6-7" value="" style="edgeStyle=orthogonalEdgeStyle;rounded=0;orthogonalLoop=1;jettySize=auto;html=1;" edge="1" parent="1" source="gJJ33UvusSRLEiqcl2n6-4" target="gJJ33UvusSRLEiqcl2n6-6">
          <mxGeometry relative="1" as="geometry" />
        </mxCell>
        <mxCell id="gJJ33UvusSRLEiqcl2n6-4" value="Short Time Fourier Transform" style="rounded=1;whiteSpace=wrap;html=1;" vertex="1" parent="1">
          <mxGeometry x="160" y="260" width="120" height="60" as="geometry" />
        </mxCell>
        <mxCell id="gJJ33UvusSRLEiqcl2n6-16" style="edgeStyle=orthogonalEdgeStyle;rounded=0;orthogonalLoop=1;jettySize=auto;html=1;exitX=1;exitY=0.5;exitDx=0;exitDy=0;entryX=0;entryY=0.5;entryDx=0;entryDy=0;" edge="1" parent="1" source="gJJ33UvusSRLEiqcl2n6-6" target="gJJ33UvusSRLEiqcl2n6-13">
          <mxGeometry relative="1" as="geometry" />
        </mxCell>
        <mxCell id="gJJ33UvusSRLEiqcl2n6-6" value="Spectrogram" style="rounded=1;whiteSpace=wrap;html=1;" vertex="1" parent="1">
          <mxGeometry x="160" y="380" width="120" height="60" as="geometry" />
        </mxCell>
        <mxCell id="gJJ33UvusSRLEiqcl2n6-12" value="" style="edgeStyle=orthogonalEdgeStyle;rounded=0;orthogonalLoop=1;jettySize=auto;html=1;" edge="1" parent="1" source="gJJ33UvusSRLEiqcl2n6-9" target="gJJ33UvusSRLEiqcl2n6-11">
          <mxGeometry relative="1" as="geometry" />
        </mxCell>
        <mxCell id="gJJ33UvusSRLEiqcl2n6-9" value="Meta Data (Spotify web API, existing papers, etc.)" style="rounded=1;whiteSpace=wrap;html=1;" vertex="1" parent="1">
          <mxGeometry x="560" y="130" width="120" height="60" as="geometry" />
        </mxCell>
        <mxCell id="gJJ33UvusSRLEiqcl2n6-14" value="" style="edgeStyle=orthogonalEdgeStyle;rounded=0;orthogonalLoop=1;jettySize=auto;html=1;" edge="1" parent="1" source="gJJ33UvusSRLEiqcl2n6-17" target="gJJ33UvusSRLEiqcl2n6-13">
          <mxGeometry relative="1" as="geometry" />
        </mxCell>
        <mxCell id="gJJ33UvusSRLEiqcl2n6-18" value="" style="edgeStyle=orthogonalEdgeStyle;rounded=0;orthogonalLoop=1;jettySize=auto;html=1;" edge="1" parent="1" source="gJJ33UvusSRLEiqcl2n6-11" target="gJJ33UvusSRLEiqcl2n6-17">
          <mxGeometry relative="1" as="geometry" />
        </mxCell>
        <mxCell id="gJJ33UvusSRLEiqcl2n6-11" value="Create model to classify to Gems" style="rounded=1;whiteSpace=wrap;html=1;" vertex="1" parent="1">
          <mxGeometry x="560" y="260" width="120" height="60" as="geometry" />
        </mxCell>
        <mxCell id="gJJ33UvusSRLEiqcl2n6-21" value="" style="edgeStyle=orthogonalEdgeStyle;rounded=0;orthogonalLoop=1;jettySize=auto;html=1;" edge="1" parent="1" source="gJJ33UvusSRLEiqcl2n6-13" target="gJJ33UvusSRLEiqcl2n6-20">
          <mxGeometry relative="1" as="geometry" />
        </mxCell>
        <mxCell id="gJJ33UvusSRLEiqcl2n6-13" value="Combine Spectrograms with larger dataset" style="rounded=1;whiteSpace=wrap;html=1;" vertex="1" parent="1">
          <mxGeometry x="360" y="380" width="120" height="60" as="geometry" />
        </mxCell>
        <mxCell id="gJJ33UvusSRLEiqcl2n6-19" value="" style="edgeStyle=orthogonalEdgeStyle;rounded=0;orthogonalLoop=1;jettySize=auto;html=1;" edge="1" parent="1" source="gJJ33UvusSRLEiqcl2n6-11" target="gJJ33UvusSRLEiqcl2n6-17">
          <mxGeometry relative="1" as="geometry">
            <mxPoint x="380" y="270" as="sourcePoint" />
            <mxPoint x="380" y="490" as="targetPoint" />
          </mxGeometry>
        </mxCell>
        <mxCell id="gJJ33UvusSRLEiqcl2n6-17" value="Use model on a larger Spotify dataset" style="rounded=1;whiteSpace=wrap;html=1;" vertex="1" parent="1">
          <mxGeometry x="560" y="380" width="120" height="60" as="geometry" />
        </mxCell>
        <mxCell id="gJJ33UvusSRLEiqcl2n6-23" value="" style="edgeStyle=orthogonalEdgeStyle;rounded=0;orthogonalLoop=1;jettySize=auto;html=1;" edge="1" parent="1" source="gJJ33UvusSRLEiqcl2n6-20" target="gJJ33UvusSRLEiqcl2n6-22">
          <mxGeometry relative="1" as="geometry" />
        </mxCell>
        <mxCell id="gJJ33UvusSRLEiqcl2n6-20" value="Combine this with existing spectrogram to gems datasets" style="rounded=1;whiteSpace=wrap;html=1;" vertex="1" parent="1">
          <mxGeometry x="360" y="510" width="120" height="60" as="geometry" />
        </mxCell>
        <mxCell id="gJJ33UvusSRLEiqcl2n6-22" value="Final Data" style="rounded=1;whiteSpace=wrap;html=1;" vertex="1" parent="1">
          <mxGeometry x="360" y="650" width="120" height="60" as="geometry" />
        </mxCell>
      </root>
    </mxGraphModel>
  </diagram>
</mxfile>
